<?xml version="1.0" encoding="utf-8"?>
<!-- Generator: Adobe Illustrator 26.5.0, SVG Export Plug-In . SVG Version: 6.00 Build 0)  -->
<svg version="1.1" id="Layer_1" xmlns="http://www.w3.org/2000/svg" xmlns:xlink="http://www.w3.org/1999/xlink" x="0px" y="0px"
	 viewBox="0 0 792 612" style="enable-background:new 0 0 792 612;" xml:space="preserve">
<style type="text/css">
	.st0{fill:#FEFEFE;}
	.st1{fill:#0E0E0E;}
	.st2{fill:#0B0B0B;}
</style>
<path class="st0" d="M448.2,151.6c-28.7,0-57.4,0.2-86.1-0.1c-6.1-0.1-7.7,1.6-7.7,7.8c0.3,46.5,0.1,93.1,0.1,139.7
	c-3,0.6-1.8-1.7-1.8-2.8c0-47.2,0-94.4-0.2-141.6c0-4.1,0.8-4.9,4.8-4.8c29.3,0.2,58.7,0.1,88,0.2
	C446.5,149.7,448.8,148.6,448.2,151.6z"/>
<path class="st1" d="M409.5,244.2c-9.1,1.4-17.9,1.9-26.5-0.5c-3.4-0.9-5.7-4.3-5.8-7.9c-0.3-7.8-0.2-15.7-0.2-23.6
	c0-2.1,1.1-4.6,2.6-4.6c8.2-0.2,10.8-7,15.5-11.8c5.9-5.9,15-3.2,19.4,4.9c1.1,2,0.9,4.5,4.3,5.4c11,2.7,13.1,8.5,7.6,19.1
	c-6.3-3.1,2.9-13.1-6.6-14.9c-5-0.9-2.9,4.8-5.6,5.9c-6.6-7.8-13.4-8.1-20.3-1.2c-2.6,2.7-3.6,1-4-1.8c-0.5-3.9-3.5-3-5.7-2.8
	c-2.9,0.3-2.9,2.8-2.9,5c0,0.6,0,1.3,0,1.9c0.1,25.9-2,23.4,21.2,23.2C404.8,240.7,407.7,239.8,409.5,244.2z"/>
<path class="st2" d="M420.4,227.7c1,5.2,4.9,7.3,9.1,8.9c-5.4,0.5-8.4,3.7-9.5,8.3c0.4-5.5-9.8-9.3-6.8-9.6
	C418.6,234.6,419,234,420.4,227.7z"/>
</svg>
